<svg height="64" width="351.03937" xmlns="http://www.w3.org/2000/svg" xmlns:xlink="http://www.w3.org/1999/xlink"><rect fill="#555" height="64" rx="5.267201" width="104"/><rect fill="#85c155" height="64" rx="6.275675" width="249.58755" x="101.45181"/><path d="m100.21955 0h35.68799v64h-35.68799z" fill="#85c155"/><g fill="#fff" transform="matrix(.78125 0 0 .78125 125.1302 6.798057)"><path d="m31.1875 0c-17.282975.43835438-31.1875 14.612004-31.1875 32 0 17.663996 14.336004 32 32 32s32-14.336004 32-32-14.336004-32-32-32c-.276 0-.538167-.00695801-.8125 0zm-.03125 5.5c.283533-.00899.558047 0 .84375 0 14.628003-.0000002 26.5 11.871998 26.5 26.5-.000002 14.628001-11.871998 26.5-26.5 26.5-14.628001-.000001-26.5-11.871998-26.5-26.5-.0000001-14.342299 11.422915-26.0487171 25.65625-26.5z"/><g fill-rule="evenodd"><path d="m36.6875 15.75c0 2.554317-2.070683 4.625-4.625 4.625s-4.625-2.070683-4.625-4.625 2.070683-4.625 4.625-4.625 4.625 2.070683 4.625 4.625z" transform="translate(-.0625 .185547)"/><path d="m27.215125 52.689453h9.56975v-15.378905h2.893008s-.0011-10.990367 0-12.720111c-.0028-.456306.04119-1.365057-.620739-2.026989-.661932-.661932-1.555399-.621804-2.02699-.620739-.47159.0011-9.588717.0011-10.060308 0s-1.365057-.04119-2.026989.620739c-.661933.661932-.617898 1.570683-.620739 2.026989.0011 1.729744 0 12.720111 0 12.720111h2.893007z"/></g></g><g transform="matrix(.78998926 0 0 .78890484 24.562303 6.561046)"><path d="m31.957.311c-8.682 0-16.322 3.213-22.226 9.203-6.078 6.164-9.377 14.152-9.377 22.486 0 8.422 3.212 16.236 9.29 22.313 6.078 6.078 13.978 9.377 22.313 9.377 8.334 0 16.409-3.299 22.66-9.463 5.904-5.817 9.029-13.544 9.029-22.227 0-8.595-3.125-16.408-9.116-22.399-6.077-6.078-13.891-9.29-22.573-9.29zm.086 5.73c7.12 0 13.458 2.691 18.406 7.641 4.862 4.861 7.466 11.286 7.466 18.318 0 7.119-2.518 13.371-7.379 18.146-5.123 5.035-11.721 7.727-18.493 7.727-6.858 0-13.283-2.691-18.232-7.641-4.949-4.949-7.727-11.46-7.727-18.232 0-6.858 2.778-13.369 7.727-18.406 4.862-4.948 11.113-7.553 18.232-7.553z" fill="#fff"/><path id="a" d="m31.635 26.734c-1.79-3.264-4.844-4.563-8.389-4.563-5.16 0-9.267 3.65-9.267 9.828 0 6.283 3.861 9.829 9.442 9.829 3.581 0 6.635-1.966 8.319-4.949l-3.931-2.001c-.878 2.105-2.212 2.738-3.896 2.738-2.914 0-4.248-2.422-4.248-5.617 0-3.193 1.124-5.616 4.248-5.616.842 0 2.527.456 3.51 2.563z" fill="#fff"/><use height="64" transform="translate(18.281)" width="64" xlink:href="#a"/></g><g fill="#fff"><g transform="matrix(.78125 0 0 .78125 200.38329 6.741006)"><path d="m31.1875 0c-17.282975.43835438-31.1875 14.612004-31.1875 32 0 17.663996 14.336004 32 32 32s32-14.336004 32-32-14.336004-32-32-32c-.276 0-.538167-.00695801-.8125 0zm-.03125 5.5c.283533-.00899.558047 0 .84375 0 14.628003-.0000002 26.5 11.871998 26.5 26.5-.000002 14.628001-11.871998 26.5-26.5 26.5-14.628001-.000001-26.5-11.871998-26.5-26.5-.0000001-14.342299 11.422915-26.0487171 25.65625-26.5z"/><path d="m25.645354 38.743144c2.060785 2.882165 8.350338 3.090297 10.509761 1.868256.792612-.448548.990593-1.746893.99061-2.62708-.000017-.604037-.158986-1.078643-.476909-1.423821-.335617-.345158-1.18935-1.221267-2.178478-1.480153-5.016376-1.294371-8.491636-2.911072-9.851701-4.084658-1.695676-1.466952-1.969426-2.425066-1.969424-4.979331-.000002-2.554225.73449-4.695027 2.394839-6.231053 1.660341-1.535974 4.071374-2.303973 7.233107-2.304 3.020403.000027 7.268292.797284 9.339407 3.255827l-3.45305 3.7562c-1.947465-1.634972-3.395851-1.7827-5.780377-1.782722-1.501388.000022-2.282971.215753-2.91884.647191-.635885.414224-.953823.957864-.953816 1.630921-.000007.604065.291435 1.104559.874332 1.501484.582878.414221 2.106318 1.035524 5.14441 1.863911 3.408993.931971 5.722878 2.062397 6.941663 3.39128 1.20108 1.328913 1.80163 3.0979 1.801653 5.306968-.000023 2.657804-.936175 4.849624-2.808459 6.575463-1.854661 1.725844-4.13762 3.067171-7.422971 3.06717-4.228954-.000001-9.873737-1.493943-11.431097-4.255298"/><path d="m12.187615-70.54866 5.802823.04135v56.072166l-5.802823-.04135z" transform="matrix(-.408348 .912826 -.911726 -.410798 0 0)"/><path d="m30.375 12.875v6.84375h3.25v-6.84375zm0 32.09375v6.15625h3.25v-6.15625z"/></g><g transform="matrix(.78121202 0 0 .78121202 274.655076 15.065248)"><path d="m31.1875-10.637556c-17.282975.438354-31.1875 14.6120036-31.1875 32 0 17.663996 14.336004 32 32 32s32-14.336004 32-32c0-17.6639964-14.336004-32-32-32-.276 0-.538167-.007-.8125 0zm-.03125 5.4999996c.283533-.00899.558047 0 .84375 0 14.628003-.0000002 26.5 11.871998 26.5 26.5000004-.000002 14.628001-11.871998 26.5-26.5 26.5-14.628001-.000001-26.5-11.871998-26.5-26.5-.0000001-14.3422994 11.422915-26.0487175 25.65625-26.5000004z"/><path d="m18.115779 16.146991h-2.740778l6.21875 6.96875 6.21875-6.96875h-2.243852c.486099-3.3998 3.476871-5.586425 6.931352-5.3125.136556.01083.267854 0 .40625 0 5.62743 0 7.84682 4.255865 8.03125 10.53125.19247 6.549199-3.60349 10.620376-8.03125 10.53125-4.673386-.09221-6.444049-2.32751-7.125-5.71875h-8.34375c1.373177 7.811231 7.123855 12.392036 15.28125 12.40625 9.23458.01625 15.906248-7.709347 15.906248-17.21875 0-10.154893-6.669368-17.2187504-15.906248-17.2187504-.274244 0-.541652-.01489-.8125 0-.0656.0036-.12197-.0011-.1875 0-5.772209.09597-13.602929 4.139742-13.602972 12.0000004z"/></g></g></svg>