<?xml version="1.0" standalone="no"?>
<!DOCTYPE svg PUBLIC "-//W3C//DTD SVG 20010904//EN"
 "http://www.w3.org/TR/2001/REC-SVG-20010904/DTD/svg10.dtd">
<svg version="1.0" xmlns="http://www.w3.org/2000/svg"
 width="640.000000pt" height="640.000000pt" viewBox="0 0 640.000000 640.000000"
 preserveAspectRatio="xMidYMid meet">
<metadata>
Created by potrace 1.16, written by Peter Selinger 2001-2019
</metadata>
<g transform="translate(0.000000,640.000000) scale(0.100000,-0.100000)"
fill="#000000" stroke="none">
<path d="M390 5945 l0 -125 245 0 245 0 0 -130 0 -130 130 0 130 0 0 -1135 0
-1135 380 0 380 0 0 1010 0 1011 -130 -3 -130 -3 -3 -875 -2 -875 -122 -3
-123 -3 0 1136 0 1135 -125 0 -125 0 0 125 0 125 -375 0 -375 0 0 -125z"/>
<path d="M2656 6061 c-3 -5 -5 -231 -3 -502 l2 -494 500 0 500 0 0 500 0 500
-497 3 c-284 1 -499 -2 -502 -7z m754 -496 l0 -255 -255 0 -255 0 0 255 0 255
255 0 255 0 0 -255z"/>
<path d="M5170 5945 l0 -125 -125 0 -125 0 0 -1135 0 -1135 -120 0 -120 0 -2
878 -3 877 -132 3 -133 3 0 -1011 0 -1010 380 0 380 0 2 1133 3 1132 127 3
127 3 3 127 3 127 253 3 252 2 0 125 0 125 -385 0 -385 0 0 -125z"/>
<path d="M2150 4778 c0 -13 0 -466 0 -1008 l-1 -985 131 -3 130 -3 0 -1259 0
-1260 755 0 755 0 0 1260 0 1260 125 0 125 0 0 1010 0 1010 -125 0 -125 0 0
-880 0 -880 -130 0 -130 0 0 -1265 0 -1265 -502 2 c-495 3 -503 3 -504 23 -1
11 -2 579 -3 1263 l-1 1242 -120 0 -120 0 0 880 0 880 -130 0 c-128 0 -130 0
-130 -22z"/>
<path d="M2902 2663 l3 -1888 253 -3 252 -2 0 1890 0 1890 -255 0 -255 0 2
-1887z"/>
</g>
</svg>
